<svg width="1010" height="1010" viewBox="0 0 1010 1010" fill="none" xmlns="http://www.w3.org/2000/svg">
<ellipse cx="506.496" cy="504.75" rx="498.504" ry="499.75" stroke="#1979BE" stroke-width="10"/>
<path d="M130.472 599.203C164.3 830.046 319.79 1004.5 506.495 1004.5C693.201 1004.5 848.691 830.046 882.519 599.203" stroke="#1979BE" stroke-width="10"/>
<path d="M133.614 395.305C169.382 167.693 321.546 5 506.495 5C691.445 5 845.764 176.189 881.532 403.801" stroke="#1979BE" stroke-width="10"/>
<ellipse cx="503.505" cy="504.75" rx="383.808" ry="498.504" transform="rotate(90 503.505 504.75)" stroke="#1979BE" stroke-width="10"/>
<path d="M316.849 645.18C340.394 852.821 414.827 1004.5 503.006 1004.5C591.185 1004.5 665.618 852.821 689.163 645.18" stroke="#1979BE" stroke-width="10"/>
<path d="M317.724 356.824C342.193 153.039 415.891 5 503.006 5C590.121 5 663.819 153.039 688.288 356.824" stroke="#1979BE" stroke-width="10"/>
<ellipse cx="503.504" cy="500.252" rx="153.923" ry="498.504" transform="rotate(-90 503.504 500.252)" stroke="#1979BE" stroke-width="10"/>
<path d="M501.51 1004.5L501.51 656.174" stroke="#1979BE" stroke-width="10"/>
<path d="M501.51 346.329L501.51 5.49975" stroke="#1979BE" stroke-width="10"/>
<path d="M313.076 641.682L387.353 652.176L499.018 657.674V797.104V887.559H432.218L375.389 875.565L341.491 781.112L313.076 641.682Z" fill="#1979BE"/>
<path d="M877.881 606.199L778.18 627.189L687.453 645.18L662.527 790.607L635.608 872.067L731.82 844.58L812.079 808.598L853.953 718.143L877.881 606.199Z" fill="#1979BE"/>
<path d="M217.861 824.59L283.166 847.579L371.401 875.565L412.981 945.53L457.144 997.004H437.702L347.971 960.522L246.276 875.565L217.861 824.59Z" fill="#1979BE"/>
<path d="M797.622 189.408L728.781 164.887L635.766 135.035L591.934 60.4056L532.916 5.49973H565.874L660.465 44.4136L767.668 135.035L797.622 189.408Z" fill="#1979BE"/>
<path d="M204.402 196.404L292.139 157.924L370.404 133.936L340.494 230.387L316.565 359.323H279.676L185.957 377.314L129.626 402.801L155.548 294.855L204.402 196.404Z" fill="#1979BE"/>
<path d="M636.605 135.435L579.776 126.745L503.505 120.942V250.352V343.202H585.758L657.542 351.327H683.963L667.014 246.87L636.605 135.435Z" fill="#1979BE"/>
<path d="M424.242 44.3987L457.144 18.1364L500.015 4.50024V58.4733V116.444L464.123 120.942L409.786 125.711L379.377 130.256L398.32 85.3073L424.242 44.3987Z" fill="#1979BE"/>
<path d="M583.29 964.544L548.213 990.844L502.507 1004.5V950.45V892.395L540.773 887.891L598.702 883.115L631.122 878.563L610.926 923.577L583.29 964.544Z" fill="#1979BE"/>
<path d="M9.98505 532.736L72.7966 578.213L127.134 600.202L160.533 724.14L191.939 799.08L134.113 762.121L66.8146 692.156L15.4686 595.705L9.98505 532.736Z" fill="#1979BE"/>
<path d="M998.021 471.767L943.186 423.268L883.365 397.804L856.944 294.833L815.07 206.899L871.401 242.381L950.663 326.817L1002.01 423.268L998.021 471.767Z" fill="#1979BE"/>
<path d="M23.9432 378.813L88.7488 285.36L157.044 227.889L199.417 200.402L274.353 103.783L389.347 22.991L337.004 31.4868L231.321 86.4593L146.077 157.424L63.8235 265.87L23.9432 378.813Z" fill="#1979BE"/>
<path d="M992.039 599.203L930.723 697.654L863.425 771.617L821.052 799.103L774.192 867.069L711.381 927.539L614.671 991.007L689.447 971.017L795.628 914.045L872.398 845.08L921.75 780.112L969.606 697.654L992.039 599.203Z" fill="#1979BE"/>
<path d="M198.746 589.218C173.509 536.269 157.12 487.673 153.217 444.191C132.577 491.309 122.638 533.554 127.02 570.138C122.357 568.768 117.693 567.362 113.029 565.944C84.9309 522.875 70.1624 484.897 72.1966 452.616C72.4116 449.525 72.4777 447.743 72.18 447.21C71.8823 446.664 70.642 446.579 68.4424 446.943C64.9033 447.598 61.3641 448.289 57.8415 449.004C58.5361 447.598 59.2803 446.204 60.0411 444.81C76.6949 439.949 93.3488 435.367 109.986 431.039C109.308 432.833 108.663 434.627 108.035 436.409C104.247 437.609 100.477 438.797 96.6895 439.985C94.308 440.797 92.8196 441.597 92.2573 442.409C91.8935 443.064 91.4965 445.125 91.2981 448.676C89.9585 478.193 99.6002 511.383 118.305 547.918C118.718 510.413 133.073 467.32 157.798 419.39C162.23 418.384 166.662 417.39 171.094 416.408C170.946 460.447 183.184 509.443 204.253 562.598C205.213 519.456 214.292 473.611 229.573 425.39C231.541 419.548 232.434 416.153 232.153 415.269C232.054 414.178 230.946 413.608 228.862 413.571C225.207 413.705 221.552 413.862 217.897 414.044C218.344 411.559 218.823 409.062 219.32 406.577C232.319 404.129 245.334 401.85 258.333 399.728C257.903 402.407 257.49 405.098 257.109 407.777C253.372 408.82 249.634 409.862 245.896 410.905C243.68 411.62 242.192 412.614 241.431 413.862C240.72 414.905 239.331 418.42 237.396 424.36C218.989 484 209.546 540.221 212.539 592.43C207.941 591.387 203.344 590.309 198.746 589.218ZM287.787 417.741C284.314 418.117 281.586 416.869 279.618 414.044C277.831 411.002 277.269 406.929 277.947 401.789C278.625 396.855 280.279 392.698 282.876 389.255C285.621 385.8 288.697 383.764 292.087 383.218C295.494 382.673 298.024 383.812 299.744 386.685C301.58 389.522 302.209 393.522 301.613 398.625C300.985 403.947 299.381 408.444 296.718 412.08C294.237 415.499 291.26 417.366 287.787 417.741ZM258.879 462.592C259.011 459.877 259.16 457.162 259.342 454.446C270.985 453.695 282.627 453.004 294.27 452.374C292.005 496.231 293.344 540.088 298.306 583.945C299.132 591.351 299.926 595.727 300.522 597.06C301.117 598.394 302.572 599.436 304.904 600.188C308.906 601.376 312.909 602.564 316.894 603.74C317.242 606.552 317.589 609.364 317.953 612.176C301.266 609.728 284.579 606.964 267.892 603.873C267.412 601.255 266.966 598.636 266.536 596.018C270.356 596.091 274.176 596.127 277.997 596.139C280.213 596.091 281.437 595.473 281.685 594.297C281.949 593.133 281.536 588.927 280.626 581.69C276.31 547.3 274.524 512.898 275.268 478.496C275.417 471.272 275.384 467.041 274.987 465.817C274.606 464.605 273.234 463.841 270.918 463.538C266.9 463.211 262.881 462.895 258.879 462.592ZM331.398 398.068C331.663 395.207 331.944 392.334 332.225 389.473C349.458 387.485 366.674 385.8 383.89 384.406C383.692 387.412 383.493 390.419 383.311 393.425C379.309 394.407 375.324 395.401 371.321 396.407C369.006 396.819 367.567 397.849 367.038 399.474C366.509 400.88 365.963 405.583 365.483 413.571C363.532 447.125 362.804 480.678 363.3 514.232C381.178 480.302 400.511 444.749 419.877 408.468C423.747 401.45 425.699 397.207 425.748 395.789C425.963 394.116 424.855 393.219 422.408 393.11C418.786 392.576 415.147 392.067 411.525 391.57C411.658 388.503 411.823 385.449 411.972 382.382C425.55 381.521 439.128 380.855 452.705 380.358C452.623 383.473 452.523 386.588 452.441 389.716C448.753 390.552 445.081 391.401 441.393 392.261C439.938 392.552 438.78 393.086 437.887 393.837C437.011 394.346 435.969 395.692 434.728 397.886C433.67 399.837 431.818 403.244 429.205 408.092C417.215 430.869 405.191 453.416 393.499 475.478C407.077 514.523 422.06 554.658 437.093 595.291C439.144 600.855 440.649 604.855 441.592 607.279C442.667 609.716 443.725 611.316 444.75 612.079C445.759 612.601 447.132 613.013 448.852 613.328C452.292 614.189 455.732 615.037 459.155 615.874C459.254 619.001 459.337 622.129 459.436 625.244C448.405 624.832 437.375 624.274 426.344 623.571C410.632 581.557 394.888 540.136 380.616 499.928C374.844 510.777 369.188 521.493 363.697 532.027C364.243 551.664 365.202 571.289 366.591 590.927C367.17 598.915 367.766 603.606 368.311 605.025C368.841 606.431 370.279 607.473 372.595 608.152C376.564 609.207 380.517 610.249 384.486 611.292C384.701 614.298 384.932 617.304 385.18 620.31C368.129 618.686 351.095 616.734 334.044 614.443C333.714 611.582 333.383 608.71 333.069 605.837C336.906 605.667 340.759 605.461 344.596 605.243C346.845 605.049 348.102 604.309 348.4 603C348.714 601.703 348.482 597.133 347.837 589.278C343.107 531.154 342.694 473.041 346.597 414.929C347.126 407.074 347.275 402.492 346.944 401.183C346.646 399.656 345.356 398.88 343.074 398.88C339.171 398.589 335.285 398.322 331.398 398.068ZM470.004 389.582C470.054 386.321 470.12 383.073 470.186 379.824C483.036 379.497 495.903 379.339 508.753 379.339C516.195 379.339 523.637 379.388 531.063 379.497C545.203 379.703 556.118 386.091 563.924 398.31C571.697 410.299 575.914 426.045 576.195 445.646C576.262 449.101 576.295 452.568 576.344 456.034C576.576 475.636 572.755 491.382 565.065 503.407C557.375 515.42 546.245 521.541 531.691 521.602C524.051 521.626 516.394 521.638 508.753 521.638C507.579 521.638 506.421 521.638 505.247 521.638C505.263 546.682 505.28 571.726 505.33 596.782C505.346 605.243 505.561 610.334 505.991 612.031C506.338 613.17 507.248 613.946 508.753 614.334C509.15 614.443 509.58 614.516 510.059 614.564C515.401 615.292 520.727 615.983 526.052 616.637C526.019 619.789 526.002 622.929 525.969 626.068C520.23 626.153 514.492 626.189 508.753 626.189C496.035 626.189 483.301 625.995 470.583 625.62C470.517 622.492 470.434 619.365 470.368 616.225C474.271 615.607 478.174 614.977 482.077 614.322C484.343 613.886 485.682 612.94 486.096 611.498C486.509 610.043 486.658 605.097 486.575 596.636C485.914 534.039 485.864 471.453 486.393 408.856C486.476 400.395 486.311 395.449 485.897 394.007C485.467 392.552 484.111 391.607 481.829 391.158C477.876 390.625 473.94 390.091 470.004 389.582ZM531.195 391.098C523.72 391.001 516.228 390.952 508.753 390.952C507.612 390.952 506.471 390.952 505.33 390.952C505.263 430.639 505.23 470.326 505.247 510.025C506.421 510.025 507.579 510.025 508.753 510.025C516.41 510.025 524.067 510.013 531.724 510.001C548.031 509.94 556.35 493.54 556.135 460.847C556.085 453.998 556.019 447.137 555.936 440.288C555.523 407.85 547.088 391.34 531.195 391.098ZM593.693 391.267C593.56 388.055 593.428 384.855 593.279 381.655C610.512 382.612 627.728 383.837 644.944 385.364C645.176 388.467 645.407 391.558 645.622 394.649C641.703 394.904 637.8 395.183 633.88 395.474C631.598 395.764 630.292 396.601 629.944 397.971C629.58 399.328 629.646 404.08 630.043 412.202C632.971 472.326 632.656 532.451 629.117 592.575C628.638 600.709 628.522 605.449 628.853 606.806C629.183 608.164 630.473 608.976 632.723 609.243C636.593 609.607 640.446 609.946 644.299 610.249C644.068 613.231 643.803 616.213 643.555 619.195C626.504 620.965 609.453 622.395 592.419 623.498C592.585 620.407 592.733 617.328 592.882 614.249C596.835 613.304 600.788 612.346 604.74 611.376C607.039 610.758 608.445 609.716 608.957 608.285C609.454 606.843 609.95 602.018 610.363 593.788C613.356 532.924 613.605 472.072 611.14 411.208C610.81 402.977 610.363 398.152 609.867 396.722C609.371 395.28 607.949 394.261 605.633 393.667C601.648 392.855 597.678 392.055 593.693 391.267ZM772.238 592.503C771.792 594.915 771.312 597.339 770.832 599.764C759.934 601.958 749.052 604.018 738.153 605.946C739.509 597.836 740.7 589.739 741.758 581.641C736.069 591.678 730.099 599.509 724.03 604.988C718.142 610.225 711.957 613.437 705.457 614.455C693.318 616.371 684.851 610.722 679.36 597.254C674.018 583.569 672.183 563.228 673.158 536.754C673.241 534.512 673.324 532.269 673.39 530.026C674.167 504.667 678.07 484.388 685.826 469.756C693.715 454.871 704.465 448.095 718.671 448.931C729.041 449.549 738.136 454.762 745.727 464.108C744.851 443.779 743.065 423.451 740.353 403.11C739.393 395.922 738.533 391.679 737.921 390.382C737.31 389.085 735.821 388.043 733.489 387.255C729.504 386.115 725.518 384.976 721.549 383.837C721.135 381 720.722 378.163 720.275 375.315C731.505 377.206 742.718 379.242 753.947 381.424C766.284 447.185 767.789 512.947 758.429 578.708C757.436 585.69 756.973 589.751 757.205 590.878C757.436 591.994 758.66 592.563 760.86 592.563C764.664 592.575 768.451 592.551 772.238 592.503ZM692.475 545.773C691.383 566.441 691.979 581.46 694.889 590.624C697.916 599.788 702.762 603.788 709.741 602.794C714.289 602.14 719.267 599.315 724.674 594.418C730.082 589.521 736.119 580.393 742.403 567.313C745.579 537.942 746.852 508.571 746.224 479.212C739.476 466.956 730.678 460.326 720.292 459.853C710.882 459.429 704.25 464.423 700.049 475.029C695.981 485.624 693.98 500.498 693.5 519.396C693.269 528.196 692.938 536.984 692.475 545.773ZM815.882 428.833C812.409 428.312 809.3 426.542 806.538 423.451C803.875 420.202 802.156 416.263 801.279 411.668C800.436 407.268 800.766 403.886 802.304 401.595C803.975 399.328 806.488 398.601 809.895 399.353C813.286 400.116 816.395 402.08 819.157 405.159C822.067 408.286 824.019 411.899 824.928 416.069C825.871 420.408 825.425 423.754 823.639 426.178C821.952 428.445 819.355 429.354 815.882 428.833ZM794.515 464.532C794.366 461.986 794.184 459.441 793.986 456.895C805.629 457.744 817.271 458.641 828.914 459.586C832.304 495.782 830.303 531.978 822.911 568.162C821.654 574.283 821.009 577.823 821.191 578.781C821.373 579.738 822.564 580.15 824.747 579.993C828.55 579.653 832.321 579.29 836.108 578.89C835.513 581.06 834.918 583.242 834.289 585.423C817.602 589.606 800.899 593.46 784.212 597C784.741 594.539 785.254 592.091 785.75 589.642C789.785 588.308 793.804 586.975 797.839 585.63C800.188 584.805 801.709 583.811 802.371 582.623C803.016 581.448 804.041 577.678 805.232 571.301C810.838 540.96 813.17 510.631 812.194 480.29C811.979 473.914 811.533 470.169 811.02 469.053C810.524 467.938 809.085 467.126 806.703 466.629C802.652 465.938 798.583 465.235 794.515 464.532ZM934.361 557.483C923.314 561.24 919.278 558.889 920.866 550.282C913.871 556.585 906.743 561.955 899.78 566.138C892.851 570.174 886.5 573.18 880.728 574.89C870.838 577.823 864.703 576.962 861.891 572.041C859.063 567.144 858.683 560.101 860.535 551.361C862.536 541.979 866.555 534.148 873.137 528.269C879.868 522.184 890.453 518.777 905.138 517.505C913.424 516.765 921.709 516.014 929.995 515.238C930.756 510.134 931.235 505.031 931.467 499.928C931.88 489.867 929.152 482.897 924.686 478.739C920.32 474.496 914.598 471.914 907.702 471.32C903.303 470.956 899.449 471.453 896.108 472.932C892.751 474.399 890.486 477.466 889.129 482.145C887.889 486.666 887.972 493.491 888.815 502.352C883.043 501.637 877.255 500.861 871.467 500.025C870.904 492.679 871.649 486.048 873.848 480.399C876.18 474.605 880 470.278 885.475 467.502C891.097 464.58 898.292 463.756 907.222 464.75C917.889 465.926 926.39 468.556 932.592 472.205C938.777 475.745 943.275 479.805 945.822 484.497C948.518 489.2 949.824 494.097 949.56 499.419C948.915 512.45 946.103 525.493 941.092 538.524C938.81 544.439 937.801 547.943 938.661 548.973C939.637 549.967 941.109 550.137 943.093 549.531C944.383 549.143 945.855 548.512 947.509 547.652C949.229 546.67 951.23 545.397 953.512 543.845C954.091 544.791 954.637 545.712 955.15 546.597C952.206 548.621 948.964 550.622 945.409 552.585C942.002 554.501 938.314 556.161 934.361 557.483ZM890.089 564.222C894.074 563.168 898.738 560.961 904.063 557.761C909.587 554.391 916.202 548.949 923.545 541.882C925.828 535.021 927.647 528.148 928.953 521.274C921.494 522.184 914.036 523.056 906.577 523.917C898.374 524.838 892.139 527.129 887.773 531.008C883.556 534.693 880.844 540.16 879.19 547.215C877.619 553.967 877.487 558.949 879.058 562.004C880.761 565.034 884.383 565.738 890.089 564.222Z" fill="#1979BE"/>
</svg>
